<svg width="28" height="20" viewBox="0 0 28 20" fill="none" xmlns="http://www.w3.org/2000/svg">
<path d="M20 1.77499V2.77499M20 6.77499V7.77499M20 11.775V12.775M20 16.775V17.775M8 10.775H15M8 13.775H12M2.5 0.774994C1.67157 0.774994 1 1.44657 1 2.27499V6.31012C2.1956 7.00174 3 8.29443 3 9.77499C3 11.2556 2.1956 12.5482 1 13.2399V17.275C1 18.1034 1.67157 18.775 2.5 18.775H25.5C26.3284 18.775 27 18.1034 27 17.275V13.2399C25.8044 12.5482 25 11.2556 25 9.77499C25 8.29443 25.8044 7.00174 27 6.31012V2.27499C27 1.44657 26.3284 0.774994 25.5 0.774994H2.5Z" stroke="#F84757" stroke-width="1.5" stroke-linecap="round" stroke-linejoin="round"/>
</svg>
